<svg id="visual" viewBox="0 0 900 450" width="900" height="450" xmlns="http://www.w3.org/2000/svg" xmlns:xlink="http://www.w3.org/1999/xlink" version="1.1"><path d="M0 251L129 251L129 257L257 257L257 182L386 182L386 187L514 187L514 205L643 205L643 181L771 181L771 226L900 226L900 190L900 0L900 0L771 0L771 0L643 0L643 0L514 0L514 0L386 0L386 0L257 0L257 0L129 0L129 0L0 0Z" fill="#ffec00"></path><path d="M0 150L129 150L129 186L257 186L257 169L386 169L386 156L514 156L514 156L643 156L643 169L771 169L771 138L900 138L900 161L900 0L900 0L771 0L771 0L643 0L643 0L514 0L514 0L386 0L386 0L257 0L257 0L129 0L129 0L0 0Z" fill="#063daa"></path><path d="M0 52L129 52L129 60L257 60L257 102L386 102L386 55L514 55L514 91L643 91L643 67L771 67L771 87L900 87L900 110L900 0L900 0L771 0L771 0L643 0L643 0L514 0L514 0L386 0L386 0L257 0L257 0L129 0L129 0L0 0Z" fill="#ffec00"></path></svg>